<?xml version="1.0" encoding="utf-8"?>
<!-- Generator: Adobe Illustrator 21.0.2, SVG Export Plug-In . SVG Version: 6.00 Build 0)  -->
<!DOCTYPE svg PUBLIC "-//W3C//DTD SVG 1.1//EN" "http://www.w3.org/Graphics/SVG/1.1/DTD/svg11.dtd">
<svg version="1.1" id="Layer_1" xmlns="http://www.w3.org/2000/svg" xmlns:xlink="http://www.w3.org/1999/xlink" x="0px" y="0px"
	 viewBox="0 0 360 194" style="enable-background:new 0 0 360 194;" xml:space="preserve">
<style type="text/css">
	.st0{fill:#003B5C;}
	.st1{fill:#F1B434;}
</style>
<g>
	<g>
		<path class="st0" d="M180.5,129.2c2.5-0.3,4-1.4,4-3.4V99.4c0-2.6-0.3-3.2-4.5-4V94H195c10.7,0,21,4,21,17
			c0,12.5-9.3,19.8-23.1,19.8h-4.5c-2.8,0-8,0.2-8,0.2V129.2z M193,128.6c12.9,0,17.7-7.2,17.7-16.3c0-9.8-5.5-16.2-15.8-16.2h-5
			l-0.6,0.6v28.9c0,1.7-0.3,3.1-0.3,3.1H193z"/>
		<path class="st0" d="M232.5,117l1.9-0.3c0.1-1.2,0.1-4.4-0.2-5.9c-0.4-2-1.4-3.5-3.5-3.5c-3.8,0-5.8,5.3-5.8,5.3h-1.8l-0.9-4.1
			c0,0,4-3.1,10.2-3.1c5.2,0,6.6,2.1,6.6,7.9v12.7c0,1.8,0.2,2.6,1.5,2.6c1.5,0,3-1.1,3-1.1l0.7,1.2c0,0-2.6,2.9-5.8,2.9
			c-2.1,0-3.8-1.2-3.8-3.9v-1.3c0,0-2.9,5.2-8.6,5.2c-3.6,0-5.7-2.6-5.7-5.6C220.2,120.6,226.8,117.8,232.5,117z M234.4,125v-6.5
			l-1.7,0.3c-3.1,0.5-7.6,2.2-7.6,6.1c0,2.2,1.4,3.4,3.1,3.4C230.3,128.3,233,126.2,234.4,125z"/>
		<path class="st0" d="M248.8,112.4c0-1.6,0.2-3.6,0.2-3.6h-3.6v-1.7c0,0,2.4-0.5,3.8-1.7l2-6l2.5,0.1l0.2,0.2c0,0-0.5,1.6-0.5,5.5
			v0.8h8.6l-0.4,2.6h-7.6l-0.6,0.6v14c0,3.2,0.9,5,3.9,5c2.5,0,5-1.2,5-1.2l0.7,1c0,0-3.1,3.4-7.9,3.4c-3.9,0-6.1-2.2-6.1-7.2V112.4
			z"/>
		<path class="st0" d="M279.2,117l1.9-0.3c0.1-1.2,0.1-4.4-0.2-5.9c-0.4-2-1.4-3.5-3.5-3.5c-3.8,0-5.8,5.3-5.8,5.3h-1.8l-0.9-4.1
			c0,0,4-3.1,10.2-3.1c5.2,0,6.6,2.1,6.6,7.9v12.7c0,1.8,0.2,2.6,1.5,2.6c1.5,0,3-1.1,3-1.1l0.7,1.2c0,0-2.6,2.9-5.8,2.9
			c-2.1,0-3.8-1.2-3.8-3.9v-1.3c0,0-2.9,5.2-8.6,5.2c-3.6,0-5.7-2.6-5.7-5.6C266.9,120.6,273.5,117.8,279.2,117z M281.1,125v-6.5
			l-1.7,0.3c-3.1,0.5-7.6,2.2-7.6,6.1c0,2.2,1.4,3.4,3.1,3.4C277,128.3,279.7,126.2,281.1,125z"/>
		<path class="st0" d="M299.1,111.7c0-3-2.6-3.7-4.8-3.7c-0.5,0-0.9,0.1-0.9,0.1v-1.5c2.3-0.2,5-2.2,5-4.9c0-1.6-0.9-2.8-2.7-2.8
			c-1.9,0-3.7,1.6-3.7,1.6l-0.6-0.7c0,0,2-2.7,5.3-2.7c2.6,0,4.6,1.5,4.6,4c0,2.5-2.9,4.8-4.9,5.6c3.5,0.4,5.6,2.2,5.6,4.7
			c0,5.3-5.5,7.5-9.6,7.5c-0.2,0-0.7,0-0.7,0l-0.2-1.1C294.8,117.5,299.1,116.2,299.1,111.7z"/>
	</g>
	<path class="st0" d="M101.8,38.9v25.2v25.2l-44.2,24.3v25.2v25.2L81.5,180l44.2-24.3v-50.4V54.8L101.8,38.9z M101.8,139.7
		l-20.3,11.2v-21.3l20.3-11.2V139.7z"/>
	<polygon class="st1" points="146,14.5 101.8,38.9 125.7,54.8 146,43.6 146,65 101.8,89.3 125.7,105.2 146,94.1 146,115.4 
		101.8,139.7 125.7,155.7 169.9,131.3 169.9,80.9 169.9,30.5 	"/>
</g>
</svg>
