<?xml version="1.0" encoding="utf-8"?>
<!-- Generator: Adobe Illustrator 21.0.2, SVG Export Plug-In . SVG Version: 6.00 Build 0)  -->
<!DOCTYPE svg PUBLIC "-//W3C//DTD SVG 1.1//EN" "http://www.w3.org/Graphics/SVG/1.1/DTD/svg11.dtd">
<svg version="1.1"
	 id="Layer_1" xmlns:cc="http://creativecommons.org/ns#" xmlns:dc="http://purl.org/dc/elements/1.1/" xmlns:inkscape="http://www.inkscape.org/namespaces/inkscape" xmlns:rdf="http://www.w3.org/1999/02/22-rdf-syntax-ns#" xmlns:sodipodi="http://sodipodi.sourceforge.net/DTD/sodipodi-0.dtd" xmlns:svg="http://www.w3.org/2000/svg"
	 xmlns="http://www.w3.org/2000/svg" xmlns:xlink="http://www.w3.org/1999/xlink" x="0px" y="0px" viewBox="0 0 80 62"
	 style="enable-background:new 0 0 80 62;" xml:space="preserve">
<style type="text/css">
	.st0{fill:#FFFFFF;}
</style>
<g transform="translate(0,-952.36218)">
	<path class="st0" d="M39.9,952.4c-0.4,0-0.8,0.1-1.2,0.4l-38,30c-0.9,0.7-1,2-0.3,2.8c0.6,0.8,2,1,2.8,0.3l36.8-29l36.8,29
		c0.8,0.7,2.2,0.5,2.8-0.3c0.6-0.8,0.6-2.2-0.3-2.8l-38-30C40.8,952.5,40.4,952.4,39.9,952.4z M40,960.4l-27,21v33h19v-20h16v20h19
		v-33L40,960.4z"/>
</g>
</svg>
