<?xml version="1.0" encoding="utf-8"?>
<!-- Generator: Adobe Illustrator 21.0.2, SVG Export Plug-In . SVG Version: 6.00 Build 0)  -->
<!DOCTYPE svg PUBLIC "-//W3C//DTD SVG 1.1//EN" "http://www.w3.org/Graphics/SVG/1.1/DTD/svg11.dtd">
<svg version="1.1"
	 id="Layer_1" xmlns:cc="http://creativecommons.org/ns#" xmlns:dc="http://purl.org/dc/elements/1.1/" xmlns:inkscape="http://www.inkscape.org/namespaces/inkscape" xmlns:rdf="http://www.w3.org/1999/02/22-rdf-syntax-ns#" xmlns:sodipodi="http://sodipodi.sourceforge.net/DTD/sodipodi-0.dtd" xmlns:svg="http://www.w3.org/2000/svg"
	 xmlns="http://www.w3.org/2000/svg" xmlns:xlink="http://www.w3.org/1999/xlink" x="0px" y="0px" viewBox="0 0 82 78"
	 style="enable-background:new 0 0 82 78;" xml:space="preserve">
<style type="text/css">
	.st0{fill:#FFFFFF;}
</style>
<g transform="translate(0,-952.36218)">
	<path class="st0" d="M20,986c8.4,13.7,14,19.1,28.1,27.3l11.2-10.9c5.7,1.4,13,3.4,18.8,3.4c1.9,0,3.9,1.9,3.9,3.7l-0.1,17
		c0,1.9-2,3.8-3.9,3.9c-48.4,0.1-76.4-27.1-77.9-74.3c-0.2-1.8,1.8-3.7,3.7-3.7h19.2c2.1-0.1,4,1.8,4.5,2.9
		c-0.5,6.4,2.3,14.2,3.8,19.8L20,986z"/>
</g>
</svg>
